<?xml version="1.0" encoding="UTF-8"?>
<svg id="uuid-fc37c61e-7951-4f5e-be19-78bb93487f5a" data-name="icons" xmlns="http://www.w3.org/2000/svg" viewBox="0 0 976.28 846.71">
  <defs>
    <style>
      .uuid-1b6784cc-fa55-4d25-9ae5-d7a35da74917 {
        fill: #5d5dd9;
        stroke-width: 0px;
      }
    </style>
  </defs>
  <path class="uuid-1b6784cc-fa55-4d25-9ae5-d7a35da74917" d="m744.11,3.47c-23.7,0-42.98,19.28-42.98,42.98,0,12.11,3.69,18.65,24.15,54.95,4.59,8.15,10.31,18.3,16.97,30.26.38.67,1.09,1.09,1.86,1.09s1.48-.42,1.86-1.09c6.62-11.88,12.3-21.98,16.87-30.09,20.54-36.46,24.25-43.03,24.25-55.13,0-23.7-19.28-42.98-42.98-42.98Zm15.02,96.01c-4.14,7.34-9.19,16.31-15.02,26.77-5.87-10.53-10.96-19.56-15.12-26.95-20-35.48-23.6-41.87-23.6-52.86,0-21.35,17.37-38.72,38.72-38.72s38.72,17.37,38.72,38.72c0,10.98-3.62,17.4-23.7,53.04Zm-15.02-76.83c-13.12,0-23.79,10.67-23.79,23.79s10.67,23.79,23.79,23.79,23.79-10.67,23.79-23.79-10.67-23.79-23.79-23.79Zm0,43.34c-10.78,0-19.54-8.77-19.54-19.54s8.77-19.54,19.54-19.54,19.54,8.77,19.54,19.54-8.77,19.54-19.54,19.54Z"/>
  <path class="uuid-1b6784cc-fa55-4d25-9ae5-d7a35da74917" d="m432.87,48.8c0-10.04-8.17-18.21-18.21-18.21s-18.21,8.17-18.21,18.21,8.17,18.21,18.21,18.21,18.21-8.17,18.21-18.21Zm-18.21,13.96c-7.7,0-13.96-6.26-13.96-13.96s6.26-13.96,13.96-13.96,13.96,6.26,13.96,13.96-6.26,13.96-13.96,13.96Zm0,69.98h0c.68,0,1.31-.32,1.71-.87,37.56-50.99,43.62-66.26,43.62-83.08,0-25-20.34-45.33-45.33-45.33s-45.33,20.34-45.33,45.33c0,18.76,8.97,35.84,43.62,83.08.4.55,1.04.87,1.71.87Zm0-125.03c22.65,0,41.08,18.43,41.08,41.08,0,15.29-5.98,30.36-41.08,78.22-32.2-44.06-41.08-61.08-41.08-78.22,0-22.65,18.43-41.08,41.08-41.08Z"/>
  <path class="uuid-1b6784cc-fa55-4d25-9ae5-d7a35da74917" d="m578.19,134.57c.22.96,1.08,1.64,2.07,1.64s1.85-.68,2.07-1.65c6.27-26.99,17.17-42.45,25.94-54.87,8.18-11.6,15.25-21.61,15.25-36.44,0-23.85-19.4-43.26-43.26-43.26s-43.26,19.4-43.26,43.26c0,14.93,7.08,24.95,15.28,36.55,8.75,12.38,19.65,27.8,25.91,54.76Zm2.07-130.32c21.51,0,39,17.5,39,39,0,13.48-6.39,22.53-14.47,33.99-8.08,11.45-17.94,25.42-24.53,48.37-6.59-22.91-16.43-36.84-24.5-48.26-8.1-11.46-14.5-20.52-14.5-34.1,0-21.51,17.5-39,39.01-39Zm0,55.27c8.96,0,16.26-7.29,16.26-16.26s-7.29-16.26-16.26-16.26-16.26,7.29-16.26,16.26,7.29,16.26,16.26,16.26Zm0-28.27c6.62,0,12.01,5.39,12.01,12.01s-5.39,12.01-12.01,12.01-12.01-5.39-12.01-12.01,5.39-12.01,12.01-12.01Z"/>
  <path class="uuid-1b6784cc-fa55-4d25-9ae5-d7a35da74917" d="m908.35,130.54c.4.56,1.04.89,1.72.89h.01c.68,0,1.32-.32,1.72-.87,3.83-5.24,7.6-10.24,11.25-15.08,18.66-24.75,33.4-44.31,33.4-64.34,0-25.56-20.8-46.36-46.36-46.36s-46.36,20.8-46.36,46.36c0,19.31,13.75,37.74,31.16,61.06,4.35,5.83,8.85,11.86,13.47,18.34Zm1.73-121.51c23.22,0,42.11,18.89,42.11,42.11,0,18.61-14.36,37.66-32.54,61.78-3.1,4.12-6.3,8.36-9.55,12.76-4.05-5.62-7.99-10.9-11.81-16.03-16.94-22.69-30.32-40.62-30.32-58.52,0-23.22,18.89-42.11,42.11-42.11Zm25.29,42.11c0-13.95-11.35-25.29-25.29-25.29s-25.29,11.35-25.29,25.29,11.35,25.29,25.29,25.29,25.29-11.35,25.29-25.29Zm-46.33,0c0-11.6,9.44-21.04,21.04-21.04s21.04,9.44,21.04,21.04-9.44,21.04-21.04,21.04-21.04-9.44-21.04-21.04Z"/>
  <path class="uuid-1b6784cc-fa55-4d25-9ae5-d7a35da74917" d="m242.04,31.03c-12.38,0-22.44,10.07-22.44,22.44s10.07,22.44,22.44,22.44,22.44-10.07,22.44-22.44-10.07-22.44-22.44-22.44Zm0,40.63c-10.03,0-18.19-8.16-18.19-18.19s8.16-18.19,18.19-18.19,18.19,8.16,18.19,18.19-8.16,18.19-18.19,18.19Zm0-71.21c-29.24,0-53.03,23.78-53.03,53.02,0,31.16,22.6,56.38,45.76,79.53l5.77,5.77c.4.4.94.62,1.5.62s1.1-.22,1.5-.62l5.77-5.77c27.46-27.46,45.75-51.49,45.75-79.53S271.28.45,242.05.45Zm4.27,129.54s0,0,0,0l-4.26,4.27-4.27-4.27c-22.52-22.52-44.51-46.98-44.51-76.52,0-26.89,21.88-48.77,48.78-48.77s48.76,21.88,48.76,48.77-17.79,49.81-44.5,76.52Zm-4.27-119.57c-23.74,0-43.06,19.31-43.06,43.04s15.23,44.72,41.55,71.19c.4.4.94.63,1.51.63s1.11-.23,1.51-.63c24.93-25.1,41.54-46.81,41.54-71.19s-19.31-43.04-43.04-43.04Zm0,109.71c-24.61-24.93-38.8-44.01-38.8-66.67,0-21.39,17.41-38.79,38.8-38.79s38.79,17.4,38.79,38.79c0,22.44-15.44,42.96-38.79,66.67Z"/>
  <path class="uuid-1b6784cc-fa55-4d25-9ae5-d7a35da74917" d="m64.13,132.14c.4.56,1.04.89,1.72.89h.01c.68,0,1.32-.32,1.72-.87,3.93-5.38,7.8-10.51,11.55-15.47,19.14-25.39,34.26-45.45,34.26-65.99,0-26.2-21.32-47.52-47.52-47.52S18.35,24.5,18.35,50.7c0,19.8,14.11,38.7,31.96,62.62,4.46,5.98,9.08,12.17,13.82,18.82Zm1.73-124.71c23.86,0,43.27,19.41,43.27,43.27,0,19.12-14.74,38.67-33.4,63.43-3.2,4.25-6.49,8.61-9.85,13.16-4.17-5.79-8.23-11.23-12.17-16.51-17.39-23.29-31.12-41.69-31.12-60.08,0-23.86,19.41-43.27,43.27-43.27Zm29.81,43.27c0-16.44-13.37-29.81-29.81-29.81s-29.81,13.37-29.81,29.81,13.37,29.81,29.81,29.81,29.81-13.37,29.81-29.81Zm-55.36,0c0-14.09,11.46-25.56,25.55-25.56s25.56,11.46,25.56,25.56-11.46,25.56-25.56,25.56-25.55-11.46-25.55-25.56Z"/>
  <path class="uuid-1b6784cc-fa55-4d25-9ae5-d7a35da74917" d="m388.31,275.33c0-10.95-8.91-19.85-19.85-19.85s-19.85,8.91-19.85,19.85,8.91,19.85,19.85,19.85,19.85-8.91,19.85-19.85Zm-35.45,0c0-8.6,7-15.6,15.6-15.6s15.6,7,15.6,15.6-7,15.6-15.6,15.6-15.6-7-15.6-15.6Zm-53.79,92.17l36.2-14.63,32.5,15.88s.03,0,.05.02c.1.05.2.08.31.11.04.01.08.03.12.04.13.03.27.04.41.05.02,0,.03,0,.05,0,0,0,0,0,0,0,.15,0,.3-.02.45-.05.03,0,.07-.02.1-.03.11-.03.22-.07.33-.11.01,0,.03,0,.04-.01l30.73-14.76,34.58,16.02c.29.13.59.2.89.2.57,0,1.13-.23,1.54-.66.63-.66.77-1.64.35-2.45l-27.63-53.05c-.23-.44-.61-.79-1.08-.98l-16.92-6.96c2.69-4.83,4.73-8.48,5.36-9.62,3.05-5.47,6.56-12.82,6.56-21.17,0-19.6-15.95-35.54-35.54-35.54s-35.54,15.94-35.54,35.54c0,8.31,3.5,15.68,6.56,21.17.62,1.11,2.57,4.62,5.17,9.29l-18.25,6.86c-.47.17-.86.51-1.1.94l-28.87,50.89c-.45.79-.35,1.77.25,2.45.6.68,1.55.91,2.4.57Zm67.51-22.32v18.26l-28.62-13.99,11.6-34.85c7.53,13.52,16.52,29.66,17.02,30.58Zm20.29-29.69l10.9,35.04-26.94,12.93v-19.16c1.99-3.58,9.48-17.03,16.04-28.81Zm19.81,1.22l24.39,46.83-28.97-13.42-12.37-39.76c.09-.17.19-.34.28-.51l16.67,6.86Zm-69.5-41.39c0-17.25,14.04-31.29,31.29-31.29s31.29,14.04,31.29,31.29c0,7.37-3.22,14.08-6.02,19.1-2.09,3.74-19.49,35.01-25.27,45.39-5.78-10.38-23.19-41.64-25.27-45.39-2.8-5.04-6.02-11.76-6.02-19.1Zm-8.56,41.03l18.13-6.82s0,.02.01.03l-13.11,39.38-30.51,12.33,25.48-44.92Z"/>
  <path class="uuid-1b6784cc-fa55-4d25-9ae5-d7a35da74917" d="m898.86,276.19c0-11.68-9.5-21.18-21.18-21.18s-21.18,9.5-21.18,21.18,9.5,21.18,21.18,21.18,21.18-9.5,21.18-21.18Zm-38.12,0c0-9.34,7.6-16.93,16.93-16.93s16.93,7.6,16.93,16.93-7.6,16.93-16.93,16.93-16.93-7.6-16.93-16.93Zm16.33,89.05s.03,0,.05.02c.1.05.2.08.31.11.04.01.08.03.12.04.13.03.27.04.41.05.02,0,.03,0,.05,0,0,0,0,0,0,0,.15,0,.3-.02.45-.05.03,0,.07-.02.1-.03.11-.03.22-.07.33-.11.01,0,.03,0,.04-.01l42.76-20.53,48.06,22.27c.29.13.59.2.89.2.62,0,1.23-.27,1.64-.77.62-.75.65-1.82.08-2.6l-38.13-52.55c-.23-.32-.55-.57-.91-.72l-29.54-12.15c4.49-7.62,7.28-14.8,7.28-22.21,0-18.4-14.97-33.38-33.38-33.38s-33.38,14.97-33.38,33.38c0,7.26,2.68,14.4,7.03,21.95l-31.44,11.82c-.36.13-.67.36-.91.66l-39.84,49.56c-.61.75-.63,1.82-.05,2.6.58.78,1.6,1.06,2.5.7l50.29-20.32,45.18,22.08Zm-23.35-63.16c3.96,6.22,8.89,12.77,14.3,19.94,2.55,3.38,5.19,6.88,7.86,10.54v27.37l-41.05-20.06,18.89-37.79Zm47.34.67l17.8,38.61-38.73,18.59v-28.32c3.01-4.19,5.94-8.13,8.78-11.94,4.51-6.04,8.67-11.62,12.14-16.95Zm63.06,56.95l-40.85-18.93-16.93-36.72,24.81,10.2,32.98,45.45Zm-86.44-112.64c16.06,0,29.13,13.07,29.13,29.13,0,12.44-9.4,25.03-21.29,40.97-2.55,3.41-5.17,6.92-7.85,10.64-2.12-2.87-4.21-5.64-6.24-8.34-12.77-16.94-22.86-30.33-22.86-43.27,0-16.06,13.07-29.13,29.13-29.13Zm-55.74,66.68l26.11-9.82-17.62,35.25-42.86,17.32,34.36-42.75Z"/>
  <path class="uuid-1b6784cc-fa55-4d25-9ae5-d7a35da74917" d="m624.94,272.08c0-7.6-6.18-13.78-13.78-13.78s-13.78,6.18-13.78,13.78,6.18,13.78,13.78,13.78,13.78-6.18,13.78-13.78Zm-23.32,0c0-5.26,4.28-9.53,9.53-9.53s9.53,4.28,9.53,9.53-4.28,9.53-9.53,9.53-9.53-4.28-9.53-9.53Zm-64.66,84.97l50.53,13.45s.03,0,.04,0c.02,0,.04.02.06.02.15.03.3.05.45.05.18,0,.35-.03.52-.07.02,0,.04,0,.06,0l55.63-15.74,56.8,16.52c.2.06.4.08.59.08.63,0,1.24-.28,1.65-.78.54-.66.63-1.58.23-2.34l-32.87-62.42c-.26-.49-.7-.86-1.23-1.03l-31.28-10.11c4.8-9.15,6.44-15.71,6.44-22.59,0-18.44-15-33.44-33.44-33.44s-33.44,15-33.44,33.44c0,8.65,2.72,17.02,10.96,30.5l-17.97-5.38c-.93-.28-1.95.12-2.45.96l-32.59,55.76c-.33.57-.38,1.27-.13,1.88.25.61.78,1.07,1.42,1.24Zm72.48-24.42c.4.54,1.04.87,1.71.87h0c.68,0,1.31-.32,1.71-.87,9.08-12.38,15.73-21.91,20.53-29.69l8.43,48.08-50.98,14.42,9.65-45.15c2.68,3.79,5.65,7.88,8.93,12.34Zm87.99,33.16l-51.31-14.92-9.14-52.11,30.32,9.8,30.13,57.22Zm-86.28-122.89c16.09,0,29.18,13.09,29.18,29.18,0,12.19-6.33,24.37-29.19,55.69-24.91-34.04-29.18-44.82-29.18-55.69,0-16.09,13.09-29.18,29.18-29.18Zm-40.06,58.85l21.05,6.3c1.53,2.34,3.2,4.82,5.03,7.48l-10.75,50.29-45.67-12.16,30.34-51.91Z"/>
  <path class="uuid-1b6784cc-fa55-4d25-9ae5-d7a35da74917" d="m130.9,269.2c0-7.79-6.34-14.13-14.13-14.13s-14.13,6.34-14.13,14.13,6.34,14.13,14.13,14.13,14.13-6.34,14.13-14.13Zm-24.02,0c0-5.45,4.43-9.88,9.88-9.88s9.88,4.43,9.88,9.88-4.43,9.88-9.88,9.88-9.88-4.43-9.88-9.88ZM7.89,371.54l45.14-19.78,44.04,21.52s.03,0,.05.02c.11.05.22.09.33.12.03,0,.07.02.1.03.15.03.3.05.45.05,0,0,0,0,0,0,.02,0,.05,0,.07,0,.13,0,.26-.02.39-.05.04-.01.09-.03.13-.04.1-.03.21-.07.3-.11.02,0,.04-.01.06-.02l39.75-20,46.86,21.72c.29.13.59.2.89.2.56,0,1.11-.22,1.52-.64.63-.65.78-1.62.38-2.43l-34.29-69.21c-.21-.42-.55-.76-.97-.97l-10.89-5.31c6.72-11.67,8.93-19.33,8.93-27.41,0-18.96-15.42-34.38-34.38-34.38s-34.38,15.42-34.38,34.38c0,8.86,2.77,17.44,11.17,31.21l-22.57-10.69s-.07-.02-.11-.04c-.07-.03-.13-.06-.2-.08-.03-.01-.07-.01-.1-.02-.06-.01-.12-.02-.17-.03-.1-.02-.21-.02-.31-.03-.05,0-.1,0-.16,0-.12,0-.24.03-.35.06-.04,0-.07.01-.11.02-.15.05-.3.11-.44.18,0,0,0,0-.01,0l-29.02,16.51c-.34.19-.62.48-.81.82l-34.01,61.43c-.44.8-.33,1.79.29,2.46.61.67,1.59.88,2.42.52Zm63.52-76.9l24.47,11.59v61.74l-40.25-19.67,15.78-53.66Zm56.93,23.21l7.86,31.93-36.07,18.15v-57.33c4.08,6.03,9,12.91,14.92,20.95.4.54,1.04.87,1.71.87h0c.68,0,1.31-.32,1.71-.87,3.67-5,6.93-9.53,9.87-13.69Zm22.25-12.41l31.29,63.15-41.39-19.18-8.91-36.21c3.31-4.81,6.11-9.07,8.45-12.91l10.56,5.14Zm-33.83-66.35c16.61,0,30.13,13.51,30.13,30.13,0,10.42-4.49,20.83-19.42,42.45,0,0,0,0,0,0-3.1,4.49-6.65,9.46-10.71,15.02-25.72-35.13-30.12-46.25-30.12-57.48,0-16.61,13.51-30.13,30.13-30.13Zm-74.14,70.63l23.92-13.61-15.22,51.76-39.38,17.26,30.68-55.41Z"/>
  <path class="uuid-1b6784cc-fa55-4d25-9ae5-d7a35da74917" d="m677.83,767.73c-.23-.46-.62-.82-1.09-1.01l-30.37-12.49s-.05,0-.07-.02c-.13-.05-.27-.08-.41-.11-.03,0-.05-.01-.08-.02-.16-.02-.33-.02-.49,0-.05,0-.09.02-.14.03-.08.01-.15.02-.23.04-.05.01-.08.04-.13.05-.05.02-.1.04-.14.06-.13.06-.24.13-.35.2-.02.01-.04.02-.06.04l-22.88,17.58-24.35-17.62s-.05-.03-.08-.04c-.09-.06-.19-.12-.3-.16-.05-.02-.1-.05-.15-.06-.03-.01-.05-.03-.08-.03-.09-.03-.17-.04-.26-.05-.04,0-.08-.02-.13-.03-.16-.02-.31-.02-.46,0-.05,0-.09.02-.14.03-.11.02-.21.04-.32.08-.03,0-.05,0-.08.02l-31.73,11.93c-.48.18-.87.52-1.12.97l-39.84,72.92c-.43.79-.32,1.76.28,2.43.6.67,1.55.89,2.38.56l50.29-20.32,45.18,22.08s.03,0,.05.02c.1.05.2.08.31.11.04.01.08.03.12.04.13.03.26.04.4.05.02,0,.04,0,.05,0,0,0,0,0,0,0,.15,0,.3-.02.45-.05.04,0,.07-.02.11-.03.11-.03.22-.06.32-.11.01,0,.03,0,.04-.01l42.76-20.53,48.06,22.27c.29.13.59.2.89.2.56,0,1.12-.22,1.53-.65.63-.65.78-1.63.37-2.43l-38.13-75.91Zm-80.9-8.09l22.37,16.18v63.63l-41.32-20.19,18.95-59.63Zm26.62,16.15l20.85-16.02,18.13,61-38.98,18.71v-63.7Zm-58-5.95l26.89-10.11-18.77,59.05-44.73,18.07,36.61-67.01Zm101.3,50.54l-17.98-60.52,25.52,10.5,35.04,69.75-42.57-19.73Z"/>
  <path class="uuid-1b6784cc-fa55-4d25-9ae5-d7a35da74917" d="m439.05,762.14c-.51-.86-1.56-1.25-2.51-.93l-25.3,8.53-29.58-12.85s-.06-.02-.09-.03c-.08-.03-.15-.05-.23-.07-.06-.02-.12-.03-.18-.04-.08-.01-.16-.02-.24-.02-.07,0-.13,0-.19,0-.03,0-.06,0-.09,0-.05,0-.1.02-.15.03-.06,0-.13.02-.19.04-.08.02-.16.05-.24.08-.04.01-.07.02-.11.04l-28.64,12.76-27.97-12.76c-.05-.02-.11-.04-.17-.06-.06-.02-.12-.05-.18-.07,0,0-.02,0-.03,0-.07-.02-.13-.02-.2-.03-.07-.01-.15-.03-.22-.03-.05,0-.11,0-.16,0-.09,0-.17,0-.26.02-.05,0-.1.02-.15.04-.09.02-.17.04-.26.07,0,0-.02,0-.03,0l-34.01,13.16c-.54.21-.96.62-1.19,1.15l-29.72,69.94c-.32.75-.18,1.63.37,2.24.41.46.99.72,1.59.72.2,0,.39-.03.59-.08l45.02-12.98,40.48,12.96s.01,0,.02,0c.15.05.3.08.45.09.06,0,.12,0,.18,0h0c.2,0,.39-.04.58-.09.02,0,.04,0,.06-.01l40.5-12.95,40.74,12.95s.02,0,.03,0c.2.06.4.1.61.1,0,0,0,0,0,0h.12c.23,0,.46-.04.68-.11l46.38-15.78c.61-.21,1.09-.67,1.31-1.28.22-.6.16-1.27-.17-1.82l-37.29-62.93Zm-115.18-.31l25.18,11.48-5.49,65.78-36.64-11.73,16.95-65.54Zm29.43,11.6l25.63-11.42,5.41,65.26-36.51,11.67,5.46-65.51Zm29.92-11.22l26.06,11.32,15.76,65.24-36.43-11.58-5.39-64.98Zm-93.18,11.45l29.31-11.34-16.75,64.75-40.18,11.58,27.62-65Zm139.48,65.56l-15.89-65.79,22.64-7.63,35.07,59.19-41.82,14.23Z"/>
  <path class="uuid-1b6784cc-fa55-4d25-9ae5-d7a35da74917" d="m337.84,572.42l-11.43,11.12c-.3.18-.56.42-.74.72l-22.65,22.04c-.62.6-.81,1.52-.49,2.32.33.8,1.1,1.33,1.97,1.33h138.37c.87,0,1.64-.52,1.97-1.33.33-.8.13-1.72-.49-2.32l-13.66-13.29s0,0,0,0l-21.16-20.59c-.4-.39-.93-.6-1.48-.6h-24.06c7.86-14.12,18.97-34.07,20.65-37.09,3.21-5.75,6.89-13.48,6.89-22.24,0-20.58-16.74-37.32-37.32-37.32s-37.32,16.74-37.32,37.32c0,8.73,3.68,16.47,6.89,22.24,1.68,3.02,12.79,22.97,20.65,37.09h-25.1c-.55,0-1.09.22-1.48.6Zm-9.41,15.08h18.61l-1.66,2.08c-1.39,1.75-1.66,4.08-.69,6.09.97,2.01,2.96,3.26,5.19,3.26h21.67v6.77h-61.83l18.71-18.2Zm74.3,18.2l-4.27-7.95c-.17-.33-.06-.6.02-.74.08-.14.27-.37.64-.37h29.19l9.31,9.06h-34.9Zm21.22-13.31h-24.82c-1.78,0-3.38.91-4.29,2.43s-.96,3.37-.12,4.93l3.19,5.94h-22.1v-15.58c0-1.45,1.18-2.62,2.62-2.62h14.73c1.92,0,3.61-1.08,4.43-2.81.82-1.73.57-3.73-.65-5.21l-2.81-3.42h13.04l16.77,16.32Zm-35.31-16.32l5.03,6.12c.22.26.17.52.08.69-.08.17-.25.37-.59.37h-14.73c-.29,0-.57.02-.85.06.98-1.76,2.38-4.27,4.03-7.24h7.03Zm-47.5-63.58c0-18.23,14.83-33.07,33.07-33.07s33.07,14.83,33.07,33.07c0,7.78-3.4,14.87-6.35,20.17-2.21,3.96-20.73,37.23-26.71,47.98-5.99-10.75-24.5-44.01-26.71-47.97-2.96-5.32-6.36-12.42-6.36-20.17Zm31.21,73.55c.08.15.19.28.3.4-.68,1.07-1.08,2.33-1.08,3.69v4.56h-21.67c-.85,0-1.23-.6-1.36-.85-.12-.26-.35-.93.18-1.59l12.93-16.17h5.15c3.27,5.88,5.55,9.97,5.55,9.97Zm-16.15-9.97l-5.74,7.18h-17.64l7.38-7.18h16Zm36.06-63.58c0-9.95-8.1-18.05-18.05-18.05s-18.05,8.1-18.05,18.05,8.1,18.05,18.05,18.05,18.05-8.1,18.05-18.05Zm-31.84,0c0-7.61,6.19-13.79,13.79-13.79s13.79,6.19,13.79,13.79-6.19,13.8-13.79,13.8-13.79-6.19-13.79-13.8Z"/>
  <path class="uuid-1b6784cc-fa55-4d25-9ae5-d7a35da74917" d="m897.45,509.65c0-7.6-6.18-13.78-13.78-13.78s-13.78,6.18-13.78,13.78,6.18,13.78,13.78,13.78,13.78-6.18,13.78-13.78Zm-23.32,0c0-5.26,4.28-9.53,9.53-9.53s9.53,4.28,9.53,9.53-4.28,9.53-9.53,9.53-9.53-4.28-9.53-9.53Zm101.9,96.16l-32.87-62.42c-.26-.49-.7-.86-1.23-1.03l-31.28-10.11c4.8-9.15,6.44-15.71,6.44-22.59,0-18.44-15-33.44-33.44-33.44s-33.44,15-33.44,33.44c0,8.65,2.72,17.02,10.96,30.5l-17.96-5.38c-.94-.28-1.95.12-2.45.96l-32.59,55.76c-.33.57-.38,1.27-.13,1.88.25.61.78,1.07,1.42,1.25l50.53,13.45s.03,0,.04,0c.02,0,.04.01.06.02.15.03.3.05.45.05,0,0,0,0,0,0,.01,0,.02,0,.03,0,.16,0,.32-.03.47-.07.02,0,.04,0,.06,0l55.63-15.74,56.8,16.52c.2.06.4.08.59.08.63,0,1.24-.28,1.65-.78.54-.66.63-1.58.23-2.34Zm-19.04-27.03l-16.55-4.36c-1.79-.47-3.2-1.87-3.69-3.66l-2.56-9.34c-.84-3.05-3.13-5.47-6.13-6.47l-16.27-5.42-2.31-13.19,30.32,9.8,17.19,32.64Zm-38.37,9.67l-5.99-34.16,14.09,4.69c1.65.55,2.91,1.88,3.37,3.56l2.56,9.34c.89,3.24,3.46,5.79,6.71,6.64l5.76,1.52,5.84,17.8-32.34-9.4Zm-45.61-30.58c2.68,3.79,5.65,7.88,8.93,12.34.4.54,1.04.87,1.71.87h0c.68,0,1.31-.32,1.71-.87,2.74-3.74,5.25-7.2,7.56-10.45l.26,11.36c0,2.3-1.54,4.36-3.76,5l-3.35.97s0,0-.01,0l-18.3,5.3,5.24-24.52Zm-6.25,29.24l17.97-5.2,1.11,14.76-22.49,6.36,3.4-15.92Zm22.15-6.41l1.71-.49c4.02-1.16,6.83-4.9,6.83-9.13l-.39-17.16c3.48-5.01,6.4-9.43,8.85-13.39l8.43,48.08-24.31,6.88-1.11-14.78Zm-5.25-100.22c16.09,0,29.18,13.09,29.18,29.18,0,10.3-4.52,20.59-19.71,42.44,0,0,0,0,0,0-2.79,4-5.93,8.4-9.47,13.25-24.91-34.04-29.18-44.82-29.18-55.69,0-16.09,13.09-29.18,29.18-29.18Zm-13.98,72.64l-.55,2.58-8.45-2.66c-.62-.2-1.13-.63-1.43-1.21-.3-.58-.35-1.25-.15-1.87l1.77-5.44,3.78,1.13c1.53,2.34,3.2,4.82,5.03,7.48Zm-26.09-13.78l13.2,3.95-1.74,5.34c-.56,1.71-.41,3.53.41,5.13.82,1.6,2.22,2.78,3.94,3.32l8.83,2.79-4.84,22.63-13.01-5.28c-2.5-1.02-3.82-3.83-3-6.4.77-2.41.55-4.98-.61-7.23-1.17-2.25-3.14-3.91-5.56-4.66l-7.66-2.41,10.04-17.17Zm-12.24,20.94l8.58,2.7c1.33.42,2.42,1.33,3.06,2.57s.76,2.65.34,3.98c-1.49,4.68.9,9.79,5.45,11.63l13.71,5.57-3.57,16.68-45.67-12.16,18.1-30.97Zm124.56,39.02l-5.89-17.95,9.66,2.55,10.26,19.48-14.02-4.08Z"/>
  <path class="uuid-1b6784cc-fa55-4d25-9ae5-d7a35da74917" d="m687.69,540.64c-.23-.41-.6-.74-1.04-.92l-18.12-7.45c.31-.44.61-.87.92-1.3,6.15-8.7,11.45-16.21,11.45-27.47,0-18.02-14.66-32.69-32.69-32.69s-32.69,14.66-32.69,32.69c0,11.2,5.3,18.7,11.43,27.39,2.2,3.12,4.59,6.51,6.96,10.4l-5.34,4.1-25.63-18.54s-.04-.02-.05-.03c-.1-.07-.21-.13-.32-.18-.04-.02-.07-.04-.11-.05,0,0-.02,0-.03-.01-.14-.05-.29-.09-.43-.11-.04,0-.08,0-.12,0-.12-.01-.24-.01-.36,0-.06,0-.12.02-.18.03-.1.02-.2.04-.3.07-.03.01-.07.01-.1.03l-33.32,12.53c-.44.16-.81.47-1.06.87l-41.83,67.37c-.49.78-.41,1.79.18,2.49.59.7,1.57.95,2.42.6l52.85-21.35,47.48,23.2s.03,0,.05.02c.1.05.2.08.31.11.04.01.08.03.12.04.13.03.26.04.4.05.02,0,.04,0,.05,0,0,0,0,0,0,0,.15,0,.3-.02.45-.05.04,0,.07-.02.11-.03.11-.03.22-.06.32-.11.01,0,.03,0,.04-.01l44.94-21.58,50.51,23.41c.29.13.59.2.89.2.58,0,1.15-.24,1.57-.69.63-.68.74-1.69.28-2.49l-40.04-70.5Zm-3.33,2.74l4.63,8.16-9.22-3.78c-1.48-.61-3.12-.3-4.27.8-1.16,1.1-1.54,2.72-1.01,4.23l5.22,14.7-12.26-4.76-6.41-17.76c-.08-.22-.2-.41-.34-.59,1.77-3.13,3.58-5.94,5.35-8.54l18.31,7.53Zm-81.63-11.44l23.76,17.19v31.09l-9.67-5.23c-1.31-.71-2.06-2.17-1.86-3.65l.87-6.55c.41-3.11-1.07-6.14-3.76-7.72-3.1-1.82-7.97-4.48-10.59-5.91-2.22-1.2-3.75-2.03-4.85-2.6l6.12-16.62Zm-7.6,20.65c3.56,1.9,10.82,5.83,14.77,8.15,1.22.72,1.89,2.09,1.7,3.5l-.87,6.55c-.42,3.21,1.21,6.4,4.05,7.95l11.7,6.33v21.92l-43.55-21.28,12.19-33.11Zm35.61,32.46c12.08-6.66,28.77-15.83,33.59-18.45l7.47,20.68-41.06,19.72v-21.95Zm27.35-35.73l4.79,13.26c-1.01.51-2.5,1.33-4.83,2.6-2.06,1.13-4.54,2.49-7.18,3.94,1.99-7.82,4.5-14.29,7.22-19.8Zm-38.31-45.82c0-15.68,12.76-28.44,28.44-28.44s28.43,12.76,28.43,28.44c0,9.92-4.71,16.58-10.67,25.02-5.81,8.22-12.85,18.19-17.76,34.25-4.91-16.09-11.97-26.09-17.78-34.33-5.95-8.43-10.65-15.09-10.65-24.94Zm26.36,67.97c.02.07.04.14.07.21-.19.11-.39.21-.58.32-5.74,3.16-11.48,6.31-14.89,8.19v-31.1l5.34-4.1c3.84,6.91,7.49,15.37,10.06,26.48Zm-76.34-28.63l28.29-10.64-5.8,15.75-11.33,4.47c-2.24.81-4.07,2.54-5.02,4.73l-4.79,11.08c-.03.07-.05.13-.08.2-.32,1.01-1.07,1.82-2.05,2.21-2.73,1.08-8.02,3.21-13.28,5.32-2.95,1.19-6.08,2.45-8.68,3.49l22.73-36.62Zm-26.51,42.69c.2-.07.41-.16.63-.24.8-.32,1.95-.77,3.33-1.32,2.75-1.1,6.41-2.57,10.09-4.05,5.25-2.11,10.53-4.24,13.25-5.32,2.14-.85,3.78-2.58,4.51-4.77l4.75-10.99c.48-1.12,1.42-2,2.62-2.44l7.86-3.1-11.72,31.85-46.82,18.92,11.51-18.53Zm132.85,1.29l-6.78-18.78,9.33,3.62c1.48.57,3.09.24,4.23-.86,1.13-1.1,1.51-2.71.98-4.2l-5.22-14.69,13.21,5.42c.15.06.3.1.45.13l28.41,50.03-44.6-20.67Zm-12.61-83.31c0-8.45-6.88-15.33-15.33-15.33s-15.33,6.88-15.33,15.33,6.88,15.33,15.33,15.33,15.33-6.88,15.33-15.33Zm-26.41,0c0-6.11,4.97-11.08,11.08-11.08s11.08,4.97,11.08,11.08-4.97,11.08-11.08,11.08-11.08-4.97-11.08-11.08Z"/>
  <path class="uuid-1b6784cc-fa55-4d25-9ae5-d7a35da74917" d="m118.15,509.18c0-7.91-6.43-14.34-14.34-14.34s-14.34,6.43-14.34,14.34,6.43,14.34,14.34,14.34,14.34-6.43,14.34-14.34Zm-24.43,0c0-5.56,4.53-10.09,10.09-10.09s10.09,4.53,10.09,10.09-4.53,10.09-10.09,10.09-10.09-4.53-10.09-10.09Zm150.83,83.09l-41.42-30.98c-.56-.42-1.29-.54-1.95-.31l-28.2,9.51-32.95-14.31s-.1-.03-.15-.05c-.08-.03-.16-.06-.24-.08-.06-.01-.12-.02-.17-.02-.08-.01-.17-.02-.25-.02-.06,0-.12,0-.19.01-.06,0-.13,0-.19.01-.02,0-.03.01-.05.01-.06.01-.12.03-.18.05-.08.02-.17.05-.25.08-.01,0-.03,0-.04.01l-25.79,11.49c4.92-11.46,10.71-19.67,15.7-26.73,7.12-10.07,13.26-18.76,13.26-31.76,0-20.78-16.9-37.68-37.68-37.68s-37.68,16.9-37.68,37.68c0,12.92,6.13,21.61,13.23,31.67,4.55,6.45,9.77,13.85,14.38,23.79l-18.53-8.45s-.1-.03-.15-.05c-.07-.03-.14-.05-.21-.07-.06-.01-.12-.02-.18-.03-.08-.01-.16-.03-.24-.03-.06,0-.11,0-.17,0-.08,0-.16,0-.24.02-.06,0-.12.02-.17.04-.08.02-.15.04-.23.06-.02,0-.04,0-.06.02l-37.79,14.62c-.33.13-.62.34-.85.6L1.91,610.13c-.61.71-.68,1.74-.17,2.53.4.62,1.08.97,1.79.97.2,0,.39-.03.59-.08l50.09-14.44,45.05,14.42s.05,0,.08.01c.07.02.14.05.22.06.12.02.23.03.35.03,0,0,0,0,0,0,0,0,0,0,0,0,.2,0,.4-.04.59-.09.02,0,.04,0,.06,0l45.07-14.41,45.34,14.41s.02,0,.03,0c.2.06.4.1.61.1,0,0,0,0,0,0h.13c.23,0,.46-.04.68-.11l51.53-17.54c.75-.25,1.29-.9,1.41-1.68.12-.78-.19-1.56-.83-2.04Zm-97.04,2.99l-5.59-33.63,29.35,12.75,16.27,33.61-40.03-12.72Zm-9.97-34.08l5.69,34.24-40.65,12.99,3.56-21.29c1.21-5.05,2.62-9.63,4.15-13.8l27.25-12.15Zm-67.15-52c0-18.43,15-33.43,33.43-33.43s33.43,15,33.43,33.43c0,11.65-5.51,19.44-12.48,29.31-5.81,8.22-12.67,17.95-18.1,32.39-.04.08-.07.17-.1.26-.97,2.59-1.89,5.3-2.75,8.21-5.71-19.32-14.09-31.19-20.97-40.95-6.96-9.86-12.46-17.65-12.46-29.22Zm31.3,78.78l-3.47,20.78-40.92-13.1,18.01-34.74,20.73,9.46c.07.03.14.05.2.07,2.05,5.16,3.91,10.95,5.45,17.53Zm-63.86-13.43l32.04-12.39-17.09,32.97-43.04,12.41,28.09-32.98Zm154.89,34.41l-16.91-34.92,25.66-8.65,37.3,27.9-46.05,15.67Z"/>
  <path class="uuid-1b6784cc-fa55-4d25-9ae5-d7a35da74917" d="m126.62,806.23c-.4-.39-.93-.6-1.48-.6h-33.26c7.82-14.04,18.46-33.17,20.11-36.11,3.21-5.75,6.89-13.48,6.89-22.24,0-20.58-16.74-37.32-37.32-37.32s-37.32,16.74-37.32,37.32c0,8.73,3.68,16.47,6.89,22.24,1.64,2.95,12.29,22.07,20.11,36.12h-34.29c-.55,0-1.09.22-1.48.6L.64,840.11c-.62.6-.81,1.52-.49,2.32.33.8,1.1,1.33,1.97,1.33h116.21c.32.19.69.29,1.06.29.3,0,.61-.07.9-.2.06-.03.1-.06.16-.09h39.51c.87,0,1.64-.52,1.97-1.33.33-.8.13-1.72-.49-2.32l-34.83-33.88Zm-2.35,3.65l10.45,10.17h-50.87c.87-1.56,2.97-5.33,5.66-10.17h34.76Zm-75.77-62.61c0-18.23,14.83-33.07,33.06-33.07s33.07,14.83,33.07,33.07c0,7.78-3.4,14.87-6.36,20.17-2.21,3.96-20.73,37.23-26.71,47.98-5.99-10.75-24.5-44.01-26.71-47.97-2.96-5.32-6.36-12.42-6.36-20.17Zm30.77,72.77h-24.84l4.12-10.17h15.06c2.69,4.83,4.79,8.61,5.66,10.17Zm-41.45-10.17h16.14l-4.12,10.17h-22.47l10.45-10.17Zm-14.76,14.36c.15.04.31.06.48.06h27.73s0,0,.01,0c0,0,0,0,0,0h57.52l7.12,15.21H7.36l15.7-15.27Zm97.56,15.27l-7.12-15.21h25.06c.17,0,.32-.02.48-.06l15.7,15.27h-34.11Zm-21.96-92.24c0-9.43-7.67-17.09-17.09-17.09s-17.09,7.67-17.09,17.09,7.67,17.09,17.09,17.09,17.09-7.67,17.09-17.09Zm-29.93,0c0-7.08,5.76-12.84,12.84-12.84s12.84,5.76,12.84,12.84-5.76,12.84-12.84,12.84-12.84-5.76-12.84-12.84Z"/>
  <path class="uuid-1b6784cc-fa55-4d25-9ae5-d7a35da74917" d="m963.71,818.98s0,0,0,0l-24.62-46.77c-.26-.49-.7-.86-1.23-1.03l-36.6-11.83s-.05-.01-.08-.02c-.07-.02-.13-.03-.2-.05-.06-.01-.13-.02-.19-.02-.06,0-.12-.01-.19-.01-.09,0-.18,0-.27.02-.03,0-.06,0-.1,0,0,0-.01,0-.02,0-.13.02-.25.06-.37.1h-.02s0,0,0,0l-34.74,13.3-31.94-9.56c-.93-.28-1.95.12-2.45.96l-34.57,59.15c-.33.57-.38,1.27-.13,1.88.25.61.78,1.07,1.42,1.25l53.59,14.27s.03,0,.04,0c.02,0,.04.01.06.02.15.03.3.05.45.05,0,0,0,0,.01,0,0,0,.02,0,.02,0,.16,0,.32-.03.48-.07.02,0,.04,0,.06,0l59.04-16.71,60.28,17.53c.2.06.4.09.59.09.63,0,1.24-.28,1.65-.78.54-.66.63-1.58.23-2.33l-10.23-19.43Zm-6.17-2.59l-21.84-6.85-6.37-20.34c-.88-2.8-3.06-5.02-5.85-5.93l-17.92-5.9-2.26-12.89,32.42,10.48,21.82,41.44Zm-44.49,3.64l-6.65-37.91,15.76,5.18c1.49.49,2.65,1.67,3.12,3.17l6.69,21.38s0,0,0,0l4.71,15.06-23.63-6.87Zm-85.32,10l7.74-19.06c.84-2.06,3.08-3.16,5.22-2.57l14.3,3.96-5.04,23.59-22.22-5.91Zm39.27-53.53l31.95-12.23,2.33,13.31-15.05,5.3c-3.64,1.28-6.09,4.74-6.09,8.6v10.87l-19.99,6.12,6.83-31.96Zm-7.85,36.72l39.21-12.02c1.12-.34,1.75-1.53,1.41-2.66-.34-1.12-1.53-1.76-2.66-1.41l-12.71,3.9v-9.57c0-2.06,1.3-3.9,3.25-4.59l14.38-5.06,6.73,38.35-54.39,15.39,4.78-22.34Zm-25.63-45.55l29.15,8.73-2.9,13.56-33.52-9.85,7.27-12.44Zm-9.48,16.22l34.84,10.23-3.01,14.06-14.05-3.89c-4.22-1.17-8.65,1.01-10.3,5.07l-7.94,19.55-22.38-5.96,22.83-39.07Zm117.54,44.43l-4.33-13.84,23.1,7.24,7.5,14.24-26.26-7.64Z"/>
</svg>