<svg width="976.28" height="846.71" xmlns="http://www.w3.org/2000/svg" data-name="icons">

 <g>
  <title>Layer 1</title>
  <path id="svg_9" stroke-width="NaN" fill="#000000" d="m94.94,44.08c0,-7.6 -6.18,-13.78 -13.78,-13.78s-13.78,6.18 -13.78,13.78s6.18,13.78 13.78,13.78s13.78,-6.18 13.78,-13.78zm-23.32,0c0,-5.26 4.28,-9.53 9.53,-9.53s9.53,4.28 9.53,9.53s-4.28,9.53 -9.53,9.53s-9.53,-4.28 -9.53,-9.53zm-64.66,84.97l50.53,13.45s0.03,0 0.04,0c0.02,0 0.04,0.02 0.06,0.02c0.15,0.03 0.3,0.05 0.45,0.05c0.18,0 0.35,-0.03 0.52,-0.07c0.02,0 0.04,0 0.06,0l55.63,-15.74l56.8,16.52c0.2,0.06 0.4,0.08 0.59,0.08c0.63,0 1.24,-0.28 1.65,-0.78c0.54,-0.66 0.63,-1.58 0.23,-2.34l-32.87,-62.42c-0.26,-0.49 -0.7,-0.86 -1.23,-1.03l-31.28,-10.11c4.8,-9.15 6.44,-15.71 6.44,-22.59c0,-18.44 -15,-33.44 -33.44,-33.44s-33.44,15 -33.44,33.44c0,8.65 2.72,17.02 10.96,30.5l-17.97,-5.38c-0.93,-0.28 -1.95,0.12 -2.45,0.96l-32.59,55.76c-0.33,0.57 -0.38,1.27 -0.13,1.88c0.25,0.61 0.78,1.07 1.42,1.24l0.02,0zm72.48,-24.42c0.4,0.54 1.04,0.87 1.71,0.87l0,0c0.68,0 1.31,-0.32 1.71,-0.87c9.08,-12.38 15.73,-21.91 20.53,-29.69l8.43,48.08l-50.98,14.42l9.65,-45.15c2.68,3.79 5.65,7.88 8.93,12.34l0.02,0zm87.99,33.16l-51.31,-14.92l-9.14,-52.11l30.32,9.8l30.13,57.22l0,0.01zm-86.28,-122.89c16.09,0 29.18,13.09 29.18,29.18c0,12.19 -6.33,24.37 -29.19,55.69c-24.91,-34.04 -29.18,-44.82 -29.18,-55.69c0,-16.09 13.09,-29.18 29.18,-29.18l0.01,0zm-40.06,58.85l21.05,6.3c1.53,2.34 3.2,4.82 5.03,7.48l-10.75,50.29l-45.67,-12.16l30.34,-51.91z" class="uuid-1b6784cc-fa55-4d25-9ae5-d7a35da74917"/>
 </g>
</svg>